<svg width="100" height="100" viewBox="0 0 100 100" fill="none" xmlns="http://www.w3.org/2000/svg">
<path d="M8.41366 29.0969C5.55919 29.0969 2.76088 28.891 0 28.526V50.7066C2.58306 51.0529 5.39073 51.2401 8.46046 51.2401C26.4483 51.2401 35.3205 44.8479 44.7169 38.0814C54.8994 30.744 65.4375 23.1633 86.4296 23.1633C91.5208 23.1633 95.985 23.6125 99.9906 24.3893V0H62.1525C50.6598 17.5012 30.8657 29.0875 8.40431 29.0875L8.41366 29.0969Z" fill="black"/>
<path d="M0.0078125 19.1117C2.74997 19.5329 5.55765 19.7575 8.42147 19.7575C25.333 19.7575 40.4758 12.0738 50.5553 0.0195312H0.0078125V19.1117Z" fill="black"/>
<path d="M86.4374 32.5137C68.4495 32.5137 59.5773 38.9058 50.1809 45.6723C39.9984 53.0097 29.4697 60.5904 8.46827 60.5904C5.43598 60.5904 2.63767 60.4313 0.0078125 60.1318V100.001H99.9984V33.9737C96.0864 33.0471 91.6409 32.5137 86.4374 32.5137Z" fill="black"/>
</svg>
