<?xml version="1.0" standalone="no"?>
<!DOCTYPE svg PUBLIC "-//W3C//DTD SVG 20010904//EN"
 "http://www.w3.org/TR/2001/REC-SVG-20010904/DTD/svg10.dtd">
<svg version="1.0" xmlns="http://www.w3.org/2000/svg"
 width="1024.000000pt" height="1024.000000pt" viewBox="0 0 1024.000000 1024.000000"
 preserveAspectRatio="xMidYMid meet">

<g transform="translate(0.000000,1024.000000) scale(0.100000,-0.100000)"
fill="#000000" stroke="none">
<path d="M2210 8142 c-91 -46 -177 -101 -207 -133 -38 -42 -123 -190 -138
-243 -58 -194 -33 -381 78 -576 37 -66 186 -267 300 -404 258 -313 390 -523
435 -690 36 -136 42 -347 12 -476 -39 -175 -99 -264 -216 -321 -61 -30 -68
-32 -152 -27 -108 7 -184 35 -246 90 -56 49 -82 96 -113 208 -12 47 -31 91
-40 98 -49 35 -93 -10 -93 -95 0 -60 70 -191 139 -261 69 -71 188 -133 289
-153 252 -48 476 137 544 450 45 206 19 527 -51 641 -15 25 -51 88 -80 140
-28 52 -98 152 -154 222 -56 69 -145 179 -198 245 -131 161 -249 325 -284 392
-77 151 -97 251 -77 397 26 189 63 249 214 351 67 45 120 73 140 75 84 8 203
-29 273 -84 44 -35 100 -130 114 -194 19 -86 27 -103 56 -110 41 -10 50 8 49
99 0 73 -4 90 -34 149 -58 116 -131 175 -272 222 -115 39 -192 36 -288 -12z"/>
<path d="M7938 7623 c-17 -4 -27 -24 -34 -71 -3 -15 -7 -242 -11 -504 -3 -263
-7 -478 -9 -478 -13 0 -329 96 -412 125 -57 20 -113 35 -125 33 -30 -4 -55
-55 -36 -73 15 -13 162 -58 492 -150 31 -8 57 -19 57 -24 0 -13 -219 -231
-317 -314 -96 -82 -110 -101 -92 -123 19 -24 46 -16 97 29 27 23 87 74 133
112 46 39 114 99 151 134 l68 64 1 -209 c1 -115 4 -254 8 -309 4 -55 3 -136
-2 -179 -10 -93 -1 -126 37 -126 50 0 51 12 47 473 -2 235 -1 427 2 427 15 0
288 -84 378 -116 103 -37 106 -38 132 -21 33 22 34 41 2 72 -17 18 -35 25 -62
25 -21 0 -78 13 -128 29 -49 16 -130 42 -180 57 -49 15 -92 28 -93 30 -2 1 32
35 75 76 177 165 375 365 389 390 19 37 18 62 -5 82 -19 17 -24 14 -151 -111
-73 -70 -182 -184 -243 -252 -109 -122 -112 -124 -118 -95 -4 24 -3 325 5 898
1 68 -2 80 -19 91 -11 6 -28 10 -37 8z"/>
<path d="M5742 7085 c-87 -40 -140 -103 -200 -237 -29 -64 -64 -161 -77 -215
-92 -374 -75 -959 34 -1189 35 -75 94 -126 174 -153 181 -62 268 0 412 291 26
53 54 99 61 102 22 9 16 42 -11 56 -34 18 -47 5 -105 -110 -85 -170 -149 -233
-256 -250 -51 -8 -62 -7 -96 12 -50 28 -112 121 -139 208 -11 36 -25 112 -30
169 -11 104 -9 494 2 505 13 13 235 28 399 27 151 0 204 9 221 41 16 30 3 390
-17 467 -22 82 -66 173 -110 221 -73 81 -165 100 -262 55z m188 -95 c46 -33
110 -171 121 -261 13 -120 11 -292 -5 -314 -11 -15 -39 -20 -192 -31 -169 -12
-344 -18 -344 -11 0 2 11 69 25 150 19 113 34 170 67 248 87 206 221 296 328
219z"/>
<path d="M4340 7075 c-10 -12 -13 -142 -16 -623 -1 -334 -7 -834 -13 -1112 -6
-278 -10 -675 -11 -882 l0 -378 24 -15 c30 -20 63 -6 70 28 3 12 8 290 11 617
2 327 5 605 5 616 0 21 1 21 38 3 85 -43 237 -51 332 -19 194 65 271 188 334
530 24 128 46 344 46 445 0 180 -60 447 -126 555 -46 77 -91 117 -160 141 -50
18 -74 21 -160 16 -101 -5 -102 -5 -261 -74 -10 -4 -13 11 -13 59 0 36 -5 71
-12 80 -19 24 -72 32 -88 13z m495 -184 c54 -24 103 -81 147 -171 68 -139 73
-171 72 -480 0 -260 -2 -282 -27 -402 -56 -266 -119 -377 -244 -435 -103 -48
-243 -40 -323 18 l-40 29 0 373 c0 204 5 505 11 667 11 329 7 310 89 358 105
62 235 80 315 43z"/>
<path d="M6490 7060 c-12 -8 -16 -58 -22 -302 -15 -575 -24 -1393 -16 -1410
10 -21 42 -31 69 -23 41 13 61 109 39 185 -7 22 -11 172 -11 390 0 368 13 548
44 607 103 197 139 238 257 296 70 34 99 43 164 48 85 6 112 23 100 63 -9 28
-20 34 -82 42 -79 10 -117 0 -205 -53 -73 -44 -215 -170 -245 -218 -10 -17
-12 1 -8 100 5 152 -5 263 -24 275 -19 12 -41 12 -60 0z"/>
<path d="M3873 7048 c-6 -7 -13 -112 -17 -233 -7 -245 -32 -782 -42 -890 -16
-173 -113 -425 -195 -505 -102 -99 -228 -89 -294 25 -26 45 -62 159 -69 220
-3 22 -10 76 -15 120 -26 194 -24 665 4 1010 18 221 16 238 -31 249 -59 15
-62 -5 -85 -534 -27 -609 17 -989 132 -1151 41 -58 198 -116 263 -98 60 17
144 69 180 113 35 43 113 184 131 236 6 17 11 -29 14 -141 7 -181 10 -194 64
-202 66 -10 91 25 77 105 -67 372 -63 325 -56 673 3 176 10 381 16 455 19 270
24 528 10 545 -15 18 -74 20 -87 3z"/>
<path d="M6925 5198 c-43 -15 -93 -65 -122 -123 -23 -44 -26 -66 -34 -220 -4
-93 -8 -290 -8 -437 l-1 -268 -22 -4 c-13 -2 -69 -9 -126 -14 -118 -10 -143
-23 -121 -63 6 -13 17 -27 23 -31 6 -4 63 -5 127 -1 l116 6 7 -294 c4 -162 5
-514 2 -784 -5 -552 -7 -535 64 -535 42 0 49 10 50 65 0 66 -19 1153 -24 1343
l-6 202 201 0 c200 0 200 0 225 25 20 20 23 29 14 45 -20 38 -41 41 -246 34
l-197 -7 7 393 c4 216 11 415 16 443 21 108 54 137 158 139 63 1 79 -2 139
-33 59 -30 70 -40 94 -89 16 -30 33 -70 40 -88 13 -35 50 -52 78 -35 42 26 5
152 -67 226 -87 91 -279 143 -387 105z"/>
<path d="M4932 4920 c-150 -75 -226 -171 -258 -326 -29 -137 -6 -261 77 -425
55 -111 114 -198 275 -413 122 -161 151 -208 203 -320 79 -172 103 -276 102
-451 0 -150 -9 -183 -76 -291 -51 -82 -118 -147 -178 -175 -118 -53 -284 11
-376 145 -34 50 -48 90 -60 180 -14 98 -52 130 -109 90 -47 -33 -23 -144 63
-293 61 -104 113 -153 205 -192 66 -29 86 -32 170 -33 90 -1 100 1 165 34 89
45 229 181 268 261 29 58 51 193 43 257 -3 20 -8 69 -11 107 -7 75 -51 249
-84 333 -55 140 -128 257 -261 422 -160 199 -258 355 -307 492 -21 58 -26 92
-26 163 -1 165 30 224 176 334 55 42 60 44 126 43 122 0 225 -70 251 -169 7
-27 14 -56 17 -66 2 -9 14 -22 26 -28 18 -10 24 -8 44 15 24 28 24 30 2 117
-13 50 -66 127 -112 160 -51 37 -154 69 -222 69 -42 0 -70 -8 -133 -40z"/>
<path d="M7681 4109 c-62 -12 -122 -51 -175 -112 -128 -150 -170 -338 -171
-762 0 -273 5 -325 50 -475 50 -168 87 -219 188 -265 84 -39 190 -45 251 -16
66 32 132 111 205 245 60 111 63 119 55 159 -7 32 -14 42 -29 42 -15 0 -34
-29 -82 -125 -87 -175 -170 -250 -277 -250 -95 0 -200 122 -241 280 -26 102
-48 490 -27 490 4 0 61 5 127 10 155 12 249 19 360 26 75 4 96 9 128 31 26 18
36 31 32 42 -4 9 -13 88 -20 176 -13 162 -42 299 -76 366 -27 53 -103 117
-162 134 -56 16 -71 17 -136 4z m144 -110 c50 -33 101 -113 120 -184 9 -33 18
-112 22 -175 7 -137 -6 -184 -54 -194 -30 -6 -221 -22 -387 -33 l-99 -6 6 84
c21 258 110 462 228 522 46 24 118 17 164 -14z"/>
<path d="M5963 4010 c-73 -37 -147 -113 -199 -206 -48 -86 -58 -131 -34 -144
30 -16 45 -3 89 78 97 181 213 250 327 196 68 -32 104 -157 104 -357 l0 -122
-67 -23 c-174 -61 -273 -134 -382 -279 -118 -157 -153 -251 -158 -418 -6 -222
25 -259 222 -260 94 0 116 3 150 21 56 31 145 127 189 207 21 37 39 67 41 65
1 -2 5 -66 8 -143 7 -155 11 -165 74 -165 53 0 65 29 48 115 -35 187 -39 244
-41 710 -2 443 -3 475 -23 550 -38 144 -93 195 -215 202 -64 4 -77 2 -133 -27z
m284 -837 c-8 -271 -43 -384 -158 -508 -71 -76 -135 -105 -230 -105 -101 0
-127 46 -116 204 8 115 38 201 107 303 74 111 146 185 213 221 96 50 172 81
181 72 4 -4 6 -89 3 -187z"/>
</g>
</svg>
