<?xml version="1.0" standalone="no"?>
<!DOCTYPE svg PUBLIC "-//W3C//DTD SVG 20010904//EN"
 "http://www.w3.org/TR/2001/REC-SVG-20010904/DTD/svg10.dtd">
<svg version="1.0" xmlns="http://www.w3.org/2000/svg"
 width="1024.000000pt" height="1024.000000pt" viewBox="0 0 1024.000000 1024.000000"
 preserveAspectRatio="xMidYMid meet">

<g transform="translate(0.000000,1024.000000) scale(0.100000,-0.100000)"
fill="#000000" stroke="none">
<path d="M840 6661 c-89 -28 -206 -115 -251 -187 -54 -88 -72 -154 -75 -285
-4 -144 10 -201 85 -344 57 -108 105 -169 245 -315 177 -185 301 -387 346
-565 27 -106 30 -275 7 -365 -35 -134 -116 -254 -193 -286 -18 -8 -64 -14
-102 -14 -57 0 -80 5 -129 30 -91 45 -147 100 -184 178 -17 37 -34 74 -38 82
-5 8 -19 16 -33 18 -54 7 -55 -80 -3 -176 56 -103 175 -186 312 -218 160 -37
322 45 402 204 111 219 95 509 -42 775 -42 83 -138 214 -328 449 -207 257
-269 377 -269 521 0 288 246 505 454 401 87 -43 135 -103 170 -211 18 -55 45
-75 71 -53 22 19 18 71 -12 152 -34 92 -104 166 -188 197 -58 22 -191 28 -245
12z"/>
<path d="M5642 6570 c-73 -35 -168 -124 -202 -190 -46 -90 -60 -149 -60 -250
0 -221 83 -390 311 -635 263 -282 371 -499 371 -745 -1 -164 -47 -288 -141
-372 -87 -78 -212 -100 -326 -57 -99 37 -152 103 -195 243 -23 72 -46 94 -80
76 -33 -18 -35 -54 -5 -136 97 -267 361 -371 598 -235 183 104 271 347 222
608 -19 101 -65 236 -104 310 -17 32 -67 102 -110 156 -74 91 -100 122 -243
286 -58 67 -146 212 -188 311 -82 193 13 462 193 546 61 28 103 30 177 8 83
-25 126 -58 156 -123 44 -97 49 -106 64 -108 62 -11 54 111 -13 199 -98 128
-283 175 -425 108z"/>
<path d="M7607 6586 c-66 -18 -117 -62 -149 -126 -56 -113 -61 -148 -66 -494
l-4 -319 -82 7 c-58 4 -86 2 -94 -6 -17 -17 -15 -35 8 -58 18 -18 28 -19 95
-13 l75 6 -1 -214 c0 -339 11 -1097 17 -1113 9 -24 36 -28 56 -9 17 17 17 38
10 368 -5 193 -6 488 -4 658 l4 307 31 1 c18 0 90 4 161 8 111 6 130 9 142 26
8 11 13 26 12 35 -3 13 -28 15 -175 12 l-171 -3 -7 126 c-8 138 0 362 17 470
20 134 84 234 159 250 77 17 181 -48 239 -150 33 -57 56 -69 81 -39 10 12 10
24 1 60 -41 152 -208 251 -355 210z"/>
<path d="M9134 6408 c-6 -8 -9 -219 -8 -544 l1 -532 -30 9 c-16 5 -80 29 -141
53 -154 63 -222 79 -255 63 -29 -14 -38 -41 -21 -62 6 -7 35 -18 63 -24 69
-15 358 -114 355 -122 -2 -4 -66 -63 -143 -131 -77 -69 -166 -153 -198 -186
-51 -55 -57 -64 -47 -83 18 -33 65 -18 125 39 27 27 102 97 165 157 l115 109
6 -90 c4 -49 7 -203 8 -342 l1 -252 25 -12 c50 -22 50 -18 46 386 l-3 373 88
-30 c175 -59 349 -104 369 -97 12 4 21 18 23 33 4 34 -22 47 -163 81 -60 15
-139 40 -174 56 l-63 30 69 77 c38 43 130 150 205 238 74 88 145 169 157 179
22 20 29 70 10 81 -23 15 -72 -22 -134 -99 -35 -44 -79 -97 -97 -117 -18 -20
-48 -54 -66 -75 -93 -108 -208 -233 -216 -233 -6 -1 -7 197 -3 492 3 270 3
512 -1 537 -6 39 -11 45 -33 48 -14 2 -30 -3 -35 -10z"/>
<path d="M3958 5726 c-101 -27 -182 -103 -243 -231 -70 -146 -101 -320 -99
-565 2 -234 44 -436 110 -531 111 -161 295 -188 432 -64 46 41 162 223 162
254 0 26 -15 34 -46 27 -18 -5 -32 -24 -56 -74 -47 -101 -82 -147 -140 -183
-111 -69 -221 -23 -311 132 -25 43 -61 158 -72 229 -12 76 -17 221 -11 282 l7
65 247 12 c302 14 325 17 346 40 37 40 42 214 12 345 -28 119 -89 216 -159
252 -38 20 -122 25 -179 10z m150 -87 c52 -37 92 -105 118 -204 16 -58 14
-239 -3 -256 -22 -22 -93 -29 -301 -29 l-213 0 6 48 c23 165 86 320 158 391
75 72 173 93 235 50z"/>
<path d="M1631 5668 c-24 -61 -37 -652 -21 -973 8 -167 10 -186 36 -263 39
-116 124 -178 240 -175 34 1 77 8 95 16 59 25 163 137 201 216 l35 72 7 -90
c12 -155 48 -237 95 -212 45 25 54 80 17 114 -22 20 -25 34 -34 162 -10 146
-1 626 17 870 10 140 3 276 -15 282 -6 2 -22 -5 -35 -16 -22 -18 -24 -25 -21
-102 2 -45 -7 -256 -19 -468 l-21 -385 -61 -123 c-91 -185 -155 -252 -248
-261 -185 -18 -235 144 -217 693 5 149 10 358 11 465 l2 195 -27 3 c-21 3 -30
-2 -37 -20z"/>
<path d="M4621 5676 c-9 -11 -10 -83 -4 -293 5 -153 6 -465 2 -693 -3 -228 -4
-421 -2 -427 3 -7 15 -13 28 -13 50 0 50 0 51 494 0 254 4 472 9 486 17 54
103 185 151 229 28 26 82 62 120 81 57 28 79 33 131 32 53 0 67 3 83 21 25 26
25 32 -1 58 -19 19 -30 21 -88 17 -54 -4 -84 -14 -150 -48 -97 -51 -163 -112
-211 -195 l-35 -60 -6 60 c-4 33 -7 95 -8 137 -1 42 -6 89 -13 103 -12 28 -39
33 -57 11z"/>
<path d="M2665 5663 c-4 -10 -8 -385 -9 -833 -1 -448 -6 -913 -10 -1032 l-9
-217 27 -12 c22 -11 29 -10 43 3 13 14 16 58 19 305 1 158 6 330 9 380 6 83 8
91 22 77 8 -8 38 -26 66 -40 106 -54 244 -28 351 68 68 60 90 93 139 208 61
145 72 209 71 430 0 199 -11 306 -40 408 -47 164 -142 257 -275 269 -102 10
-228 -34 -301 -105 l-38 -36 0 53 c0 29 -5 61 -10 72 -13 24 -45 25 -55 2z
m442 -78 c61 -26 98 -60 130 -122 54 -103 68 -184 68 -393 0 -253 -24 -374
-101 -520 -97 -185 -239 -250 -374 -173 -31 18 -66 43 -79 57 l-23 24 6 499 5
498 43 38 c43 38 120 83 168 98 42 13 119 10 157 -6z"/>
<path d="M6663 5657 c-84 -31 -156 -105 -214 -219 -33 -64 -36 -90 -14 -108
24 -20 42 -5 80 70 84 167 209 236 328 180 23 -11 48 -29 55 -40 14 -23 28
-119 37 -265 8 -138 7 -139 -131 -184 -71 -23 -133 -50 -168 -75 -117 -80
-207 -210 -251 -361 -23 -76 -26 -103 -22 -175 8 -129 45 -193 131 -220 54
-17 154 -8 209 20 56 28 137 98 188 163 l39 49 1 -89 c0 -106 15 -157 47 -161
12 -2 22 0 23 5 0 4 1 276 3 603 2 434 0 607 -9 640 -34 128 -102 181 -232
179 -37 0 -82 -6 -100 -12z m267 -816 l0 -198 -48 -74 c-73 -112 -148 -197
-195 -220 -51 -27 -140 -29 -186 -4 -50 25 -65 72 -57 175 7 104 9 111 35 178
29 73 90 161 148 212 62 54 215 129 266 130 l37 0 0 -199z"/>
<path d="M8138 5636 c-48 -17 -129 -77 -161 -120 -41 -53 -84 -146 -101 -216
-33 -143 -38 -183 -43 -376 -5 -186 -4 -210 16 -299 30 -128 96 -260 157 -314
54 -47 118 -71 191 -71 106 0 175 55 282 222 65 101 74 140 39 161 -24 15 -43
-4 -83 -82 -64 -126 -117 -187 -184 -209 -112 -38 -224 22 -281 151 -42 94
-70 328 -61 508 1 15 30 18 261 24 221 6 264 10 282 24 32 27 51 153 38 267
-14 131 -42 203 -107 275 -20 22 -49 47 -64 55 -35 17 -132 18 -181 0z m172
-102 c24 -22 47 -56 59 -88 26 -70 43 -195 35 -261 -11 -88 -10 -88 -264 -93
l-220 -4 6 48 c17 141 81 301 146 366 49 49 89 67 150 68 41 0 54 -5 88 -36z"/>
</g>
</svg>
