<?xml version="1.0" encoding="UTF-8"?>
<svg version="1.1" xmlns="http://www.w3.org/2000/svg" width="975" height="975">
<path d="M0 0 C321.75 0 643.5 0 975 0 C975 321.75 975 643.5 975 975 C653.25 975 331.5 975 0 975 C0 653.25 0 331.5 0 0 Z " fill="#000000" transform="translate(0,0)"/>
<path d="M0 0 C22.2232341 20.84576091 26.12861854 52.64942912 27.08917236 81.6071167 C29.6000212 168.58695423 29.6000212 168.58695423 5.3359375 196.66015625 C-1.44986366 203.60873524 -8.79442347 207.41934996 -17.7265625 210.91015625 C-18.34998535 211.15677002 -18.9734082 211.40338379 -19.61572266 211.6574707 C-29.94631549 215.46396368 -40.62601637 216.02459804 -51.5390625 215.97265625 C-53.3789978 215.96528442 -53.3789978 215.96528442 -55.25610352 215.95776367 C-75.62210254 215.69605891 -93.61048163 211.75694618 -109.06640625 197.63671875 C-128.95953058 177.09449055 -131.98909938 142.13246745 -132.01953125 115.03515625 C-132.02285965 113.9675708 -132.02618805 112.89998535 -132.02961731 111.80004883 C-132.03464353 109.55469183 -132.03702698 107.30932747 -132.03686523 105.06396484 C-132.03903926 101.696158 -132.05720766 98.32868612 -132.07617188 94.9609375 C-132.12008724 78.31571541 -131.49573589 61.69761572 -128.1015625 45.34765625 C-127.93309814 44.52845703 -127.76463379 43.70925781 -127.59106445 42.86523438 C-123.36963481 23.5651213 -114.0075527 5.31202506 -97.1015625 -5.71484375 C-69.36094374 -20.87796238 -25.01452062 -20.52561349 0 0 Z " fill="#FBC414" transform="translate(830.8515625,392.33984375)"/>
<path d="M0 0 C21.45 0 42.9 0 65 0 C66.98 7.26 68.96 14.52 71 22 C72.88308059 28.53252048 72.88308059 28.53252048 74.76904297 35.06420898 C77.16338899 43.42495384 79.30699447 51.84792197 81.46459961 60.2722168 C83.20590574 67.03765087 85.05687087 73.74686999 87.08618164 80.43066406 C89.4237725 88.23212443 91.38301593 96.13316743 93.40087891 104.02197266 C95.28684093 111.35742141 97.27710579 118.64506688 99.49023438 125.88867188 C100.51903691 129.26698887 101.30400411 132.52002053 102 136 C102.33 91.12 102.66 46.24 103 0 C120.82 0 138.64 0 157 0 C157 73.59 157 147.18 157 223 C135.88 223 114.76 223 93 223 C85.8125 197.33035714 85.8125 197.33035714 83.25195312 188.13500977 C80.73100813 179.09152885 78.15229934 170.06832578 75.5 161.0625 C72.71208669 151.58749394 70.107596 142.07128828 67.5612793 132.52880859 C65.70001994 125.56548419 63.79205098 118.61815407 61.8125 111.6875 C61.5868335 110.89512939 61.36116699 110.10275879 61.12866211 109.28637695 C59.17649423 102.49317337 57.07974412 95.75916839 55 89 C54.67 133.22 54.34 177.44 54 223 C36.18 223 18.36 223 0 223 C0 149.41 0 75.82 0 0 Z " fill="#FDA040" transform="translate(278,382)"/>
<path d="M0 0 C43.23 0 86.46 0 131 0 C131 15.51 131 31.02 131 47 C106.91 47 82.82 47 58 47 C58 59.54 58 72.08 58 85 C80.77 85 103.54 85 127 85 C127 100.18 127 115.36 127 131 C104.23 131 81.46 131 58 131 C58 145.52 58 160.04 58 175 C83.41 175 108.82 175 135 175 C135.0309375 186.6015625 135.0309375 186.6015625 135.0625 198.4375 C135.071604 200.88212646 135.08070801 203.32675293 135.09008789 205.84545898 C135.09300691 207.77067001 135.0955555 209.69588165 135.09765625 211.62109375 C135.10277222 212.63079224 135.10788818 213.64049072 135.11315918 214.68078613 C135.11334045 216.11194763 135.11334045 216.11194763 135.11352539 217.57202148 C135.115746 218.40475082 135.11796661 219.23748016 135.12025452 220.09544373 C135 222 135 222 134 223 C132.26640402 223.09627113 130.52885354 223.12187568 128.79258728 223.12025452 C127.10281847 223.12232076 127.10281847 223.12232076 125.37891293 223.12442875 C124.12715047 223.12083064 122.87538801 223.11723253 121.58569336 223.11352539 C120.24392226 223.11321927 118.90215101 223.11335218 117.56037998 223.11389065 C113.9553729 223.11411713 110.35039876 223.10830609 106.74539948 223.10128021 C103.36708976 223.09560053 99.98878821 223.09531793 96.61047363 223.09460449 C86.71947803 223.08934959 76.8284886 223.07538854 66.9375 223.0625 C44.848125 223.041875 22.75875 223.02125 0 223 C0 149.41 0 75.82 0 0 Z " fill="#FC9053" transform="translate(122,382)"/>
<path d="M0 0 C19.8 0 39.6 0 60 0 C61.07610374 2.15220747 61.34444512 3.77992659 61.68359375 6.15625 C61.80532959 7.00413086 61.92706543 7.85201172 62.05249023 8.72558594 C62.17954346 9.64114258 62.30659668 10.55669922 62.4375 11.5 C62.57164307 12.44907227 62.70578613 13.39814453 62.84399414 14.37597656 C63.64781548 20.15884998 64.34129298 25.94252693 64.9375 31.75 C65.80232032 40.13429536 67.1597753 48.41834863 68.53442383 56.73217773 C69.69080525 63.81318252 70.61797189 70.88044964 71.3515625 78.01635742 C71.97904767 84.06500633 72.94325805 90.01454754 74 96 C75.18222007 103.06561214 76.13935387 110.1244697 76.875 117.25 C77.77373191 125.90939068 79.13678736 134.47553898 80.59130859 143.05761719 C81.69929987 149.69274337 82.49023233 156.29205239 83 163 C83.33 163 83.66 163 84 163 C84.10638479 162.23892346 84.21276958 161.47784693 84.32237816 160.69370747 C86.91741405 142.12927647 89.51344106 123.56498431 92.11055565 105.000844 C93.36650366 96.02317234 94.62212276 87.04545491 95.87695312 78.06762695 C96.97134387 70.23768894 98.06636643 62.40783959 99.16213095 54.57809371 C99.74168517 50.43675245 100.32093434 46.29536907 100.89942551 42.15387917 C101.44529343 38.24601619 101.9920139 34.33827338 102.53935432 30.43061638 C102.73878211 29.00578204 102.93791342 27.58090616 103.1367054 26.15598297 C103.4110522 24.18983493 103.68663383 22.22385933 103.96224976 20.25788879 C104.11526739 19.16372052 104.26828503 18.06955225 104.42593956 16.94222736 C105.2490617 11.28962634 106.1314163 5.64579407 107 0 C127.46 0 147.92 0 169 0 C167.24597581 9.93947043 165.49940746 19.74859779 163.24731445 29.56762695 C160.11492763 43.28518712 157.12111571 57.02503374 154.3125 70.8125 C153.73465379 73.64589028 153.15659352 76.4792367 152.578125 79.3125 C152.372658 80.31898087 152.372658 80.31898087 152.16304016 81.34579468 C150.43133186 89.80783261 148.5790964 98.24262054 146.72607422 106.67871094 C145.86437836 110.6203755 145.01149397 114.56389983 144.16015625 118.5078125 C143.99622375 119.26724655 143.83229126 120.0266806 143.66339111 120.80912781 C143.32348102 122.38404801 142.98359699 123.95897384 142.64373779 125.53390503 C140.49952963 135.4691903 138.35440241 145.40422567 136.17578125 155.33203125 C136.03052002 155.99407059 135.88525879 156.65610992 135.7355957 157.33821106 C135.01894509 160.60331757 134.30152704 163.86825327 133.58349609 167.13305664 C132.0614843 174.07445845 130.56830144 181.02079713 129.11328125 187.9765625 C128.87834206 189.09677795 128.87834206 189.09677795 128.63865662 190.23962402 C127.88569897 193.83084441 127.13690954 197.42282659 126.39624023 201.01660156 C126.12626221 202.30791992 125.85628418 203.59923828 125.578125 204.9296875 C125.34512695 206.05616699 125.11212891 207.18264648 124.87207031 208.34326172 C123.774426 212.94586994 122.35963915 217.4678695 121 222 C96.25 222 71.5 222 46 222 C43.03 208.14 43.03 208.14 40 194 C39.01 190.04 38.02 186.08 37 182 C36.51287396 179.58897212 36.05088993 177.17259468 35.625 174.75 C33.07783189 160.68428439 30.27081655 146.63280585 26.671875 132.796875 C25.71569928 128.81651562 24.9978841 124.79909176 24.26513672 120.77246094 C21.81967733 107.43643079 19.16566493 94.09056005 15.72924805 80.97241211 C14.92175723 77.68108278 14.2467857 74.37935395 13.58984375 71.0546875 C13.39519279 70.07294304 13.39519279 70.07294304 13.1966095 69.07136536 C12.32661038 64.67771982 11.46683263 60.28206383 10.60546875 55.88671875 C7.93513644 42.3027327 5.14699695 28.78118925 1.82885742 15.33666992 C1.46884644 13.8416394 1.46884644 13.8416394 1.1015625 12.31640625 C0.88838379 11.45474854 0.67520508 10.59309082 0.45556641 9.70532227 C0 7 0 7 0 0 Z " fill="#FCAF2E" transform="translate(446,382)"/>
<path d="M0 0 C19.14 0 38.28 0 58 0 C58 73.26 58 146.52 58 222 C38.86 222 19.72 222 0 222 C0 148.74 0 75.48 0 0 Z " fill="#FCB921" transform="translate(622,382)"/>
<path d="M0 0 C4.69232069 2.17857746 7.98634979 5.20859123 10 10 C14.01235976 24.27611934 14.17054507 38.61228649 14.203125 53.30859375 C14.20736607 54.61302272 14.20736607 54.61302272 14.21169281 55.94380379 C14.22660626 60.55099913 14.23588379 65.15816382 14.24023438 69.76538086 C14.24569139 74.46134541 14.26968344 79.15701601 14.29820633 83.85288906 C14.31707093 87.51921845 14.32205088 91.18548056 14.32357025 94.85185432 C14.32654662 96.57976948 14.33439874 98.30768497 14.34775543 100.03555107 C14.4146264 109.35497908 14.01748988 118.42511913 12.66699219 127.65649414 C12.55055988 128.45973083 12.43412758 129.26296751 12.31416702 130.0905447 C11.01900962 138.14471501 9.63430096 145.69255923 3 151 C-0.29092594 152.09697531 -2.91112159 152.2371983 -6.375 152.3125 C-8.05722656 152.36857422 -8.05722656 152.36857422 -9.7734375 152.42578125 C-13.71802261 151.90524883 -15.23908127 150.82399772 -18 148 C-19.29296875 145.73828125 -19.29296875 145.73828125 -20.1875 143.3125 C-20.49042969 142.52488281 -20.79335938 141.73726562 -21.10546875 140.92578125 C-23.22137157 134.00520828 -24.32811131 127.27583538 -24.61450195 120.05297852 C-24.6707938 118.82226923 -24.6707938 118.82226923 -24.72822285 117.56669712 C-25.08865808 109.09630906 -25.1639093 100.62924838 -25.16796875 92.15234375 C-25.17119937 90.51868158 -25.17456463 88.88501967 -25.17805481 87.25135803 C-25.18397005 83.86247081 -25.18590243 80.4736088 -25.18530273 77.0847168 C-25.18520094 72.79689063 -25.1989062 68.50922935 -25.21607494 64.22144222 C-25.22732217 60.8588846 -25.22921818 57.49636546 -25.22869301 54.13379097 C-25.22985203 52.55495188 -25.23415249 50.97611107 -25.24202538 49.39729118 C-25.28021665 40.95777524 -25.00352514 32.64746752 -24.09106445 24.25219727 C-24.01086909 23.5101879 -23.93067373 22.76817854 -23.84804821 22.00368404 C-22.95023216 14.47950005 -21.30120972 7.97287109 -16 2.375 C-11.21926837 -1.2595951 -5.70627143 -0.92062237 0 0 Z " fill="#010100" transform="translate(784,417)"/>
</svg>
